<svg width="35" height="35" viewBox="0 0 35 35" fill="none" xmlns="http://www.w3.org/2000/svg">
<rect width="34.1306" height="34.1306" rx="13.1271" fill="white"/>
<path d="M24.3588 26.7731C23.9971 25.5607 24.4205 24.2617 24.8933 23.0864C25.6938 21.2343 26.1307 19.2447 26.18 17.2266C26.18 13.5853 24.922 9.82859 22.221 7.30899C20.8462 6.05833 19.077 5.33189 17.2225 5.25652C15.368 5.18114 13.5461 5.76163 12.0749 6.89661C8.86409 9.37086 7.83217 13.54 7.87739 17.4245V19.2885M21.148 10.8884C19.5365 8.82654 17.3206 8.00179 15.0472 9.00798C13.263 9.79974 12.0707 11.54 11.4623 13.342C10.6935 15.6101 11.0511 17.9895 10.8004 20.3318C10.6647 21.6555 10.1919 23.0246 9.15593 23.8411M22.3033 12.9874C22.8116 14.335 23.0681 15.7651 23.0597 17.206C23.051 19.027 22.6293 20.8222 21.8264 22.4555C21.37 23.3916 20.408 25.0411 19.1336 24.3937C18.0935 23.8658 18.2661 22.6452 18.5621 21.7132C19.1254 19.9441 19.9476 18.4142 20.0298 16.5091C20.1079 14.7235 19.5488 12.8472 17.7811 12.0967C17.278 11.8799 16.7172 11.8372 16.1873 11.9753C15.6573 12.1135 15.1882 12.4245 14.8539 12.8596C13.3534 14.9214 14.2003 17.206 13.5055 19.4782M16.2887 19.8411C15.6063 21.7545 14.8252 24.0349 15.4665 26.0638C16.2517 28.538 19.076 29.3875 21.3453 28.5875M13.1026 22.2369C12.8896 23.0222 12.5846 23.7793 12.194 24.4926C11.802 25.2087 11.2364 25.8143 10.5496 26.2535M16.9259 17.173C17.0846 16.4742 17.129 15.7541 17.0575 15.041C17.1469 15.7537 17.1023 16.4768 16.9259 17.173Z" stroke="#896CFE" stroke-width="1.42515" stroke-linecap="round" stroke-linejoin="round"/>
</svg>
